<svg width="15" height="15" viewBox="0 0 15 15" fill="none" xmlns="http://www.w3.org/2000/svg">
<path d="M13.3242 12.5171L9.52002 8.71289C10.1104 7.94971 10.4297 7.0166 10.4297 6.03516C10.4297 4.86035 9.97119 3.75879 9.14209 2.92822C8.31299 2.09766 7.2085 1.64062 6.03516 1.64062C4.86182 1.64062 3.75732 2.09912 2.92822 2.92822C2.09766 3.75732 1.64062 4.86035 1.64062 6.03516C1.64062 7.2085 2.09912 8.31299 2.92822 9.14209C3.75732 9.97266 4.86035 10.4297 6.03516 10.4297C7.0166 10.4297 7.94824 10.1104 8.71143 9.52148L12.5156 13.3242C12.5268 13.3354 12.54 13.3442 12.5546 13.3503C12.5692 13.3563 12.5848 13.3594 12.6006 13.3594C12.6164 13.3594 12.632 13.3563 12.6466 13.3503C12.6611 13.3442 12.6744 13.3354 12.6855 13.3242L13.3242 12.687C13.3354 12.6759 13.3442 12.6626 13.3503 12.648C13.3563 12.6335 13.3594 12.6178 13.3594 12.602C13.3594 12.5863 13.3563 12.5706 13.3503 12.5561C13.3442 12.5415 13.3354 12.5282 13.3242 12.5171V12.5171ZM8.35547 8.35547C7.73437 8.9751 6.91113 9.31641 6.03516 9.31641C5.15918 9.31641 4.33594 8.9751 3.71484 8.35547C3.09521 7.73437 2.75391 6.91113 2.75391 6.03516C2.75391 5.15918 3.09521 4.33447 3.71484 3.71484C4.33594 3.09521 5.15918 2.75391 6.03516 2.75391C6.91113 2.75391 7.73584 3.09375 8.35547 3.71484C8.9751 4.33594 9.31641 5.15918 9.31641 6.03516C9.31641 6.91113 8.9751 7.73584 8.35547 8.35547Z" fill="#699BF7"/>
</svg>
